<?xml version="1.0" encoding="utf-8"?>
<svg xmlns="http://www.w3.org/2000/svg" xmlns:xlink="http://www.w3.org/1999/xlink" width="600" height="400" viewBox="0 0 2400 1600">
<defs>
  <clipPath id="clip870">
    <rect x="0" y="0" width="2400" height="1600"/>
  </clipPath>
</defs>
<path clip-path="url(#clip870)" d="
M0 1600 L2400 1600 L2400 0 L0 0  Z
  " fill="#ffffff" fill-rule="evenodd" fill-opacity="1"/>
<defs>
  <clipPath id="clip871">
    <rect x="480" y="0" width="1681" height="1600"/>
  </clipPath>
</defs>
<path clip-path="url(#clip870)" d="
M265.445 1423.18 L2352.76 1423.18 L2352.76 123.472 L265.445 123.472  Z
  " fill="#ffffff" fill-rule="evenodd" fill-opacity="1"/>
<defs>
  <clipPath id="clip872">
    <rect x="265" y="123" width="2088" height="1301"/>
  </clipPath>
</defs>
<polyline clip-path="url(#clip872)" style="stroke:#000000; stroke-linecap:butt; stroke-linejoin:round; stroke-width:2; stroke-opacity:0.1; fill:none" points="
  324.52,1423.18 324.52,123.472 
  "/>
<polyline clip-path="url(#clip872)" style="stroke:#000000; stroke-linecap:butt; stroke-linejoin:round; stroke-width:2; stroke-opacity:0.1; fill:none" points="
  816.81,1423.18 816.81,123.472 
  "/>
<polyline clip-path="url(#clip872)" style="stroke:#000000; stroke-linecap:butt; stroke-linejoin:round; stroke-width:2; stroke-opacity:0.1; fill:none" points="
  1309.1,1423.18 1309.1,123.472 
  "/>
<polyline clip-path="url(#clip872)" style="stroke:#000000; stroke-linecap:butt; stroke-linejoin:round; stroke-width:2; stroke-opacity:0.1; fill:none" points="
  1801.39,1423.18 1801.39,123.472 
  "/>
<polyline clip-path="url(#clip872)" style="stroke:#000000; stroke-linecap:butt; stroke-linejoin:round; stroke-width:2; stroke-opacity:0.1; fill:none" points="
  2293.68,1423.18 2293.68,123.472 
  "/>
<polyline clip-path="url(#clip870)" style="stroke:#000000; stroke-linecap:butt; stroke-linejoin:round; stroke-width:4; stroke-opacity:1; fill:none" points="
  265.445,1423.18 2352.76,1423.18 
  "/>
<polyline clip-path="url(#clip870)" style="stroke:#000000; stroke-linecap:butt; stroke-linejoin:round; stroke-width:4; stroke-opacity:1; fill:none" points="
  324.52,1423.18 324.52,1404.28 
  "/>
<polyline clip-path="url(#clip870)" style="stroke:#000000; stroke-linecap:butt; stroke-linejoin:round; stroke-width:4; stroke-opacity:1; fill:none" points="
  816.81,1423.18 816.81,1404.28 
  "/>
<polyline clip-path="url(#clip870)" style="stroke:#000000; stroke-linecap:butt; stroke-linejoin:round; stroke-width:4; stroke-opacity:1; fill:none" points="
  1309.1,1423.18 1309.1,1404.28 
  "/>
<polyline clip-path="url(#clip870)" style="stroke:#000000; stroke-linecap:butt; stroke-linejoin:round; stroke-width:4; stroke-opacity:1; fill:none" points="
  1801.39,1423.18 1801.39,1404.28 
  "/>
<polyline clip-path="url(#clip870)" style="stroke:#000000; stroke-linecap:butt; stroke-linejoin:round; stroke-width:4; stroke-opacity:1; fill:none" points="
  2293.68,1423.18 2293.68,1404.28 
  "/>
<path clip-path="url(#clip870)" d="M301.904 1454.1 Q298.293 1454.1 296.464 1457.66 Q294.659 1461.2 294.659 1468.33 Q294.659 1475.44 296.464 1479.01 Q298.293 1482.55 301.904 1482.55 Q305.538 1482.55 307.344 1479.01 Q309.172 1475.44 309.172 1468.33 Q309.172 1461.2 307.344 1457.66 Q305.538 1454.1 301.904 1454.1 M301.904 1450.39 Q307.714 1450.39 310.77 1455 Q313.848 1459.58 313.848 1468.33 Q313.848 1477.06 310.77 1481.67 Q307.714 1486.25 301.904 1486.25 Q296.094 1486.25 293.015 1481.67 Q289.96 1477.06 289.96 1468.33 Q289.96 1459.58 293.015 1455 Q296.094 1450.39 301.904 1450.39 Z" fill="#000000" fill-rule="evenodd" fill-opacity="1" /><path clip-path="url(#clip870)" d="M322.066 1479.7 L326.95 1479.7 L326.95 1485.58 L322.066 1485.58 L322.066 1479.7 Z" fill="#000000" fill-rule="evenodd" fill-opacity="1" /><path clip-path="url(#clip870)" d="M347.135 1454.1 Q343.524 1454.1 341.695 1457.66 Q339.89 1461.2 339.89 1468.33 Q339.89 1475.44 341.695 1479.01 Q343.524 1482.55 347.135 1482.55 Q350.769 1482.55 352.575 1479.01 Q354.404 1475.44 354.404 1468.33 Q354.404 1461.2 352.575 1457.66 Q350.769 1454.1 347.135 1454.1 M347.135 1450.39 Q352.945 1450.39 356.001 1455 Q359.08 1459.58 359.08 1468.33 Q359.08 1477.06 356.001 1481.67 Q352.945 1486.25 347.135 1486.25 Q341.325 1486.25 338.246 1481.67 Q335.191 1477.06 335.191 1468.33 Q335.191 1459.58 338.246 1455 Q341.325 1450.39 347.135 1450.39 Z" fill="#000000" fill-rule="evenodd" fill-opacity="1" /><path clip-path="url(#clip870)" d="M794.692 1454.1 Q791.081 1454.1 789.252 1457.66 Q787.447 1461.2 787.447 1468.33 Q787.447 1475.44 789.252 1479.01 Q791.081 1482.55 794.692 1482.55 Q798.326 1482.55 800.132 1479.01 Q801.96 1475.44 801.96 1468.33 Q801.96 1461.2 800.132 1457.66 Q798.326 1454.1 794.692 1454.1 M794.692 1450.39 Q800.502 1450.39 803.558 1455 Q806.636 1459.58 806.636 1468.33 Q806.636 1477.06 803.558 1481.67 Q800.502 1486.25 794.692 1486.25 Q788.882 1486.25 785.803 1481.67 Q782.748 1477.06 782.748 1468.33 Q782.748 1459.58 785.803 1455 Q788.882 1450.39 794.692 1450.39 Z" fill="#000000" fill-rule="evenodd" fill-opacity="1" /><path clip-path="url(#clip870)" d="M814.854 1479.7 L819.738 1479.7 L819.738 1485.58 L814.854 1485.58 L814.854 1479.7 Z" fill="#000000" fill-rule="evenodd" fill-opacity="1" /><path clip-path="url(#clip870)" d="M829.97 1451.02 L848.326 1451.02 L848.326 1454.96 L834.252 1454.96 L834.252 1463.43 Q835.27 1463.08 836.289 1462.92 Q837.308 1462.73 838.326 1462.73 Q844.113 1462.73 847.493 1465.9 Q850.872 1469.08 850.872 1474.49 Q850.872 1480.07 847.4 1483.17 Q843.928 1486.25 837.608 1486.25 Q835.433 1486.25 833.164 1485.88 Q830.919 1485.51 828.511 1484.77 L828.511 1480.07 Q830.595 1481.2 832.817 1481.76 Q835.039 1482.32 837.516 1482.32 Q841.52 1482.32 843.858 1480.21 Q846.196 1478.1 846.196 1474.49 Q846.196 1470.88 843.858 1468.77 Q841.52 1466.67 837.516 1466.67 Q835.641 1466.67 833.766 1467.08 Q831.914 1467.5 829.97 1468.38 L829.97 1451.02 Z" fill="#000000" fill-rule="evenodd" fill-opacity="1" /><path clip-path="url(#clip870)" d="M1276.25 1481.64 L1283.89 1481.64 L1283.89 1455.28 L1275.58 1456.95 L1275.58 1452.69 L1283.85 1451.02 L1288.52 1451.02 L1288.52 1481.64 L1296.16 1481.64 L1296.16 1485.58 L1276.25 1485.58 L1276.25 1481.64 Z" fill="#000000" fill-rule="evenodd" fill-opacity="1" /><path clip-path="url(#clip870)" d="M1305.6 1479.7 L1310.49 1479.7 L1310.49 1485.58 L1305.6 1485.58 L1305.6 1479.7 Z" fill="#000000" fill-rule="evenodd" fill-opacity="1" /><path clip-path="url(#clip870)" d="M1330.67 1454.1 Q1327.06 1454.1 1325.23 1457.66 Q1323.43 1461.2 1323.43 1468.33 Q1323.43 1475.44 1325.23 1479.01 Q1327.06 1482.55 1330.67 1482.55 Q1334.31 1482.55 1336.11 1479.01 Q1337.94 1475.44 1337.94 1468.33 Q1337.94 1461.2 1336.11 1457.66 Q1334.31 1454.1 1330.67 1454.1 M1330.67 1450.39 Q1336.48 1450.39 1339.54 1455 Q1342.62 1459.58 1342.62 1468.33 Q1342.62 1477.06 1339.54 1481.67 Q1336.48 1486.25 1330.67 1486.25 Q1324.86 1486.25 1321.79 1481.67 Q1318.73 1477.06 1318.73 1468.33 Q1318.73 1459.58 1321.79 1455 Q1324.86 1450.39 1330.67 1450.39 Z" fill="#000000" fill-rule="evenodd" fill-opacity="1" /><path clip-path="url(#clip870)" d="M1769.04 1481.64 L1776.68 1481.64 L1776.68 1455.28 L1768.37 1456.95 L1768.37 1452.69 L1776.63 1451.02 L1781.31 1451.02 L1781.31 1481.64 L1788.95 1481.64 L1788.95 1485.58 L1769.04 1485.58 L1769.04 1481.64 Z" fill="#000000" fill-rule="evenodd" fill-opacity="1" /><path clip-path="url(#clip870)" d="M1798.39 1479.7 L1803.28 1479.7 L1803.28 1485.58 L1798.39 1485.58 L1798.39 1479.7 Z" fill="#000000" fill-rule="evenodd" fill-opacity="1" /><path clip-path="url(#clip870)" d="M1813.51 1451.02 L1831.87 1451.02 L1831.87 1454.96 L1817.79 1454.96 L1817.79 1463.43 Q1818.81 1463.08 1819.83 1462.92 Q1820.85 1462.73 1821.87 1462.73 Q1827.65 1462.73 1831.03 1465.9 Q1834.41 1469.08 1834.41 1474.49 Q1834.41 1480.07 1830.94 1483.17 Q1827.47 1486.25 1821.15 1486.25 Q1818.97 1486.25 1816.7 1485.88 Q1814.46 1485.51 1812.05 1484.77 L1812.05 1480.07 Q1814.13 1481.2 1816.36 1481.76 Q1818.58 1482.32 1821.05 1482.32 Q1825.06 1482.32 1827.4 1480.21 Q1829.74 1478.1 1829.74 1474.49 Q1829.74 1470.88 1827.4 1468.77 Q1825.06 1466.67 1821.05 1466.67 Q1819.18 1466.67 1817.3 1467.08 Q1815.45 1467.5 1813.51 1468.38 L1813.51 1451.02 Z" fill="#000000" fill-rule="evenodd" fill-opacity="1" /><path clip-path="url(#clip870)" d="M2264.92 1481.64 L2281.24 1481.64 L2281.24 1485.58 L2259.29 1485.58 L2259.29 1481.64 Q2261.96 1478.89 2266.54 1474.26 Q2271.15 1469.61 2272.33 1468.27 Q2274.57 1465.74 2275.45 1464.01 Q2276.35 1462.25 2276.35 1460.56 Q2276.35 1457.8 2274.41 1456.07 Q2272.49 1454.33 2269.39 1454.33 Q2267.19 1454.33 2264.73 1455.09 Q2262.3 1455.86 2259.53 1457.41 L2259.53 1452.69 Q2262.35 1451.55 2264.8 1450.97 Q2267.26 1450.39 2269.29 1450.39 Q2274.66 1450.39 2277.86 1453.08 Q2281.05 1455.77 2281.05 1460.26 Q2281.05 1462.39 2280.24 1464.31 Q2279.46 1466.2 2277.35 1468.8 Q2276.77 1469.47 2273.67 1472.69 Q2270.57 1475.88 2264.92 1481.64 Z" fill="#000000" fill-rule="evenodd" fill-opacity="1" /><path clip-path="url(#clip870)" d="M2291.05 1479.7 L2295.94 1479.7 L2295.94 1485.58 L2291.05 1485.58 L2291.05 1479.7 Z" fill="#000000" fill-rule="evenodd" fill-opacity="1" /><path clip-path="url(#clip870)" d="M2316.12 1454.1 Q2312.51 1454.1 2310.68 1457.66 Q2308.88 1461.2 2308.88 1468.33 Q2308.88 1475.44 2310.68 1479.01 Q2312.51 1482.55 2316.12 1482.55 Q2319.76 1482.55 2321.56 1479.01 Q2323.39 1475.44 2323.39 1468.33 Q2323.39 1461.2 2321.56 1457.66 Q2319.76 1454.1 2316.12 1454.1 M2316.12 1450.39 Q2321.93 1450.39 2324.99 1455 Q2328.07 1459.58 2328.07 1468.33 Q2328.07 1477.06 2324.99 1481.67 Q2321.93 1486.25 2316.12 1486.25 Q2310.31 1486.25 2307.23 1481.67 Q2304.18 1477.06 2304.18 1468.33 Q2304.18 1459.58 2307.23 1455 Q2310.31 1450.39 2316.12 1450.39 Z" fill="#000000" fill-rule="evenodd" fill-opacity="1" /><path clip-path="url(#clip870)" d="M1196.55 1522.27 L1196.55 1532.4 L1208.62 1532.4 L1208.62 1536.95 L1196.55 1536.95 L1196.55 1556.3 Q1196.55 1560.66 1197.73 1561.9 Q1198.94 1563.14 1202.6 1563.14 L1208.62 1563.14 L1208.62 1568.04 L1202.6 1568.04 Q1195.82 1568.04 1193.24 1565.53 Q1190.67 1562.98 1190.67 1556.3 L1190.67 1536.95 L1186.37 1536.95 L1186.37 1532.4 L1190.67 1532.4 L1190.67 1522.27 L1196.55 1522.27 Z" fill="#000000" fill-rule="evenodd" fill-opacity="1" /><path clip-path="url(#clip870)" d="M1216.32 1532.4 L1222.18 1532.4 L1222.18 1568.04 L1216.32 1568.04 L1216.32 1532.4 M1216.32 1518.52 L1222.18 1518.52 L1222.18 1525.93 L1216.32 1525.93 L1216.32 1518.52 Z" fill="#000000" fill-rule="evenodd" fill-opacity="1" /><path clip-path="url(#clip870)" d="M1262.19 1539.24 Q1264.38 1535.29 1267.44 1533.41 Q1270.49 1531.54 1274.63 1531.54 Q1280.2 1531.54 1283.22 1535.45 Q1286.25 1539.33 1286.25 1546.53 L1286.25 1568.04 L1280.36 1568.04 L1280.36 1546.72 Q1280.36 1541.59 1278.54 1539.11 Q1276.73 1536.63 1273.01 1536.63 Q1268.46 1536.63 1265.81 1539.65 Q1263.17 1542.68 1263.17 1547.9 L1263.17 1568.04 L1257.28 1568.04 L1257.28 1546.72 Q1257.28 1541.56 1255.47 1539.11 Q1253.66 1536.63 1249.87 1536.63 Q1245.38 1536.63 1242.74 1539.68 Q1240.1 1542.71 1240.1 1547.9 L1240.1 1568.04 L1234.21 1568.04 L1234.21 1532.4 L1240.1 1532.4 L1240.1 1537.93 Q1242.1 1534.66 1244.9 1533.1 Q1247.7 1531.54 1251.55 1531.54 Q1255.44 1531.54 1258.14 1533.51 Q1260.88 1535.48 1262.19 1539.24 Z" fill="#000000" fill-rule="evenodd" fill-opacity="1" /><path clip-path="url(#clip870)" d="M1328.42 1548.76 L1328.42 1551.62 L1301.49 1551.62 Q1301.88 1557.67 1305.12 1560.85 Q1308.4 1564 1314.22 1564 Q1317.6 1564 1320.75 1563.17 Q1323.93 1562.35 1327.05 1560.69 L1327.05 1566.23 Q1323.9 1567.57 1320.59 1568.27 Q1317.28 1568.97 1313.87 1568.97 Q1305.34 1568.97 1300.35 1564 Q1295.38 1559.04 1295.38 1550.57 Q1295.38 1541.82 1300.09 1536.69 Q1304.84 1531.54 1312.86 1531.54 Q1320.05 1531.54 1324.22 1536.18 Q1328.42 1540.8 1328.42 1548.76 M1322.56 1547.04 Q1322.5 1542.23 1319.86 1539.37 Q1317.25 1536.5 1312.92 1536.5 Q1308.02 1536.5 1305.06 1539.27 Q1302.13 1542.04 1301.68 1547.07 L1322.56 1547.04 Z" fill="#000000" fill-rule="evenodd" fill-opacity="1" /><path clip-path="url(#clip870)" d="M1372.82 1518.58 Q1368.56 1525.9 1366.49 1533.06 Q1364.42 1540.23 1364.42 1547.58 Q1364.42 1554.93 1366.49 1562.16 Q1368.59 1569.35 1372.82 1576.64 L1367.73 1576.64 Q1362.95 1569.16 1360.57 1561.93 Q1358.21 1554.71 1358.21 1547.58 Q1358.21 1540.48 1360.57 1533.29 Q1362.92 1526.09 1367.73 1518.58 L1372.82 1518.58 Z" fill="#000000" fill-rule="evenodd" fill-opacity="1" /><path clip-path="url(#clip870)" d="M1406.91 1533.45 L1406.91 1538.98 Q1404.43 1537.71 1401.75 1537.07 Q1399.08 1536.44 1396.22 1536.44 Q1391.85 1536.44 1389.66 1537.77 Q1387.49 1539.11 1387.49 1541.79 Q1387.49 1543.82 1389.05 1545 Q1390.61 1546.15 1395.32 1547.2 L1397.33 1547.64 Q1403.57 1548.98 1406.18 1551.43 Q1408.82 1553.85 1408.82 1558.21 Q1408.82 1563.17 1404.87 1566.07 Q1400.96 1568.97 1394.08 1568.97 Q1391.22 1568.97 1388.1 1568.39 Q1385.01 1567.85 1381.57 1566.74 L1381.57 1560.69 Q1384.82 1562.38 1387.97 1563.24 Q1391.12 1564.07 1394.21 1564.07 Q1398.35 1564.07 1400.58 1562.66 Q1402.8 1561.23 1402.8 1558.65 Q1402.8 1556.27 1401.18 1554.99 Q1399.59 1553.72 1394.15 1552.54 L1392.11 1552.07 Q1386.67 1550.92 1384.25 1548.56 Q1381.83 1546.18 1381.83 1542.04 Q1381.83 1537.01 1385.39 1534.27 Q1388.96 1531.54 1395.51 1531.54 Q1398.76 1531.54 1401.63 1532.01 Q1404.49 1532.49 1406.91 1533.45 Z" fill="#000000" fill-rule="evenodd" fill-opacity="1" /><path clip-path="url(#clip870)" d="M1417.22 1518.58 L1422.31 1518.58 Q1427.09 1526.09 1429.44 1533.29 Q1431.83 1540.48 1431.83 1547.58 Q1431.83 1554.71 1429.44 1561.93 Q1427.09 1569.16 1422.31 1576.64 L1417.22 1576.64 Q1421.46 1569.35 1423.52 1562.16 Q1425.62 1554.93 1425.62 1547.58 Q1425.62 1540.23 1423.52 1533.06 Q1421.46 1525.9 1417.22 1518.58 Z" fill="#000000" fill-rule="evenodd" fill-opacity="1" /><polyline clip-path="url(#clip872)" style="stroke:#000000; stroke-linecap:butt; stroke-linejoin:round; stroke-width:2; stroke-opacity:0.1; fill:none" points="
  265.445,1386.4 2352.76,1386.4 
  "/>
<polyline clip-path="url(#clip872)" style="stroke:#000000; stroke-linecap:butt; stroke-linejoin:round; stroke-width:2; stroke-opacity:0.1; fill:none" points="
  265.445,1034.15 2352.76,1034.15 
  "/>
<polyline clip-path="url(#clip872)" style="stroke:#000000; stroke-linecap:butt; stroke-linejoin:round; stroke-width:2; stroke-opacity:0.1; fill:none" points="
  265.445,681.901 2352.76,681.901 
  "/>
<polyline clip-path="url(#clip872)" style="stroke:#000000; stroke-linecap:butt; stroke-linejoin:round; stroke-width:2; stroke-opacity:0.1; fill:none" points="
  265.445,329.654 2352.76,329.654 
  "/>
<polyline clip-path="url(#clip870)" style="stroke:#000000; stroke-linecap:butt; stroke-linejoin:round; stroke-width:4; stroke-opacity:1; fill:none" points="
  265.445,1423.18 265.445,123.472 
  "/>
<polyline clip-path="url(#clip870)" style="stroke:#000000; stroke-linecap:butt; stroke-linejoin:round; stroke-width:4; stroke-opacity:1; fill:none" points="
  265.445,1386.4 284.342,1386.4 
  "/>
<polyline clip-path="url(#clip870)" style="stroke:#000000; stroke-linecap:butt; stroke-linejoin:round; stroke-width:4; stroke-opacity:1; fill:none" points="
  265.445,1034.15 284.342,1034.15 
  "/>
<polyline clip-path="url(#clip870)" style="stroke:#000000; stroke-linecap:butt; stroke-linejoin:round; stroke-width:4; stroke-opacity:1; fill:none" points="
  265.445,681.901 284.342,681.901 
  "/>
<polyline clip-path="url(#clip870)" style="stroke:#000000; stroke-linecap:butt; stroke-linejoin:round; stroke-width:4; stroke-opacity:1; fill:none" points="
  265.445,329.654 284.342,329.654 
  "/>
<path clip-path="url(#clip870)" d="M217.5 1372.19 Q213.889 1372.19 212.061 1375.76 Q210.255 1379.3 210.255 1386.43 Q210.255 1393.54 212.061 1397.1 Q213.889 1400.64 217.5 1400.64 Q221.135 1400.64 222.94 1397.1 Q224.769 1393.54 224.769 1386.43 Q224.769 1379.3 222.94 1375.76 Q221.135 1372.19 217.5 1372.19 M217.5 1368.49 Q223.31 1368.49 226.366 1373.1 Q229.445 1377.68 229.445 1386.43 Q229.445 1395.16 226.366 1399.76 Q223.31 1404.35 217.5 1404.35 Q211.69 1404.35 208.612 1399.76 Q205.556 1395.16 205.556 1386.43 Q205.556 1377.68 208.612 1373.1 Q211.69 1368.49 217.5 1368.49 Z" fill="#000000" fill-rule="evenodd" fill-opacity="1" /><path clip-path="url(#clip870)" d="M121.043 1047.49 L137.362 1047.49 L137.362 1051.43 L115.418 1051.43 L115.418 1047.49 Q118.08 1044.74 122.663 1040.11 Q127.269 1035.46 128.45 1034.11 Q130.695 1031.59 131.575 1029.85 Q132.478 1028.1 132.478 1026.41 Q132.478 1023.65 130.533 1021.91 Q128.612 1020.18 125.51 1020.18 Q123.311 1020.18 120.857 1020.94 Q118.427 1021.71 115.649 1023.26 L115.649 1018.54 Q118.473 1017.4 120.927 1016.82 Q123.38 1016.24 125.418 1016.24 Q130.788 1016.24 133.982 1018.93 Q137.177 1021.61 137.177 1026.1 Q137.177 1028.23 136.367 1030.16 Q135.579 1032.05 133.473 1034.65 Q132.894 1035.32 129.792 1038.54 Q126.691 1041.73 121.043 1047.49 Z" fill="#000000" fill-rule="evenodd" fill-opacity="1" /><path clip-path="url(#clip870)" d="M157.177 1019.95 Q153.566 1019.95 151.737 1023.51 Q149.931 1027.05 149.931 1034.18 Q149.931 1041.29 151.737 1044.85 Q153.566 1048.4 157.177 1048.4 Q160.811 1048.4 162.616 1044.85 Q164.445 1041.29 164.445 1034.18 Q164.445 1027.05 162.616 1023.51 Q160.811 1019.95 157.177 1019.95 M157.177 1016.24 Q162.987 1016.24 166.042 1020.85 Q169.121 1025.43 169.121 1034.18 Q169.121 1042.91 166.042 1047.52 Q162.987 1052.1 157.177 1052.1 Q151.366 1052.1 148.288 1047.52 Q145.232 1042.91 145.232 1034.18 Q145.232 1025.43 148.288 1020.85 Q151.366 1016.24 157.177 1016.24 Z" fill="#000000" fill-rule="evenodd" fill-opacity="1" /><path clip-path="url(#clip870)" d="M187.338 1019.95 Q183.727 1019.95 181.899 1023.51 Q180.093 1027.05 180.093 1034.18 Q180.093 1041.29 181.899 1044.85 Q183.727 1048.4 187.338 1048.4 Q190.973 1048.4 192.778 1044.85 Q194.607 1041.29 194.607 1034.18 Q194.607 1027.05 192.778 1023.51 Q190.973 1019.95 187.338 1019.95 M187.338 1016.24 Q193.149 1016.24 196.204 1020.85 Q199.283 1025.43 199.283 1034.18 Q199.283 1042.91 196.204 1047.52 Q193.149 1052.1 187.338 1052.1 Q181.528 1052.1 178.45 1047.52 Q175.394 1042.91 175.394 1034.18 Q175.394 1025.43 178.45 1020.85 Q181.528 1016.24 187.338 1016.24 Z" fill="#000000" fill-rule="evenodd" fill-opacity="1" /><path clip-path="url(#clip870)" d="M217.5 1019.95 Q213.889 1019.95 212.061 1023.51 Q210.255 1027.05 210.255 1034.18 Q210.255 1041.29 212.061 1044.85 Q213.889 1048.4 217.5 1048.4 Q221.135 1048.4 222.94 1044.85 Q224.769 1041.29 224.769 1034.18 Q224.769 1027.05 222.94 1023.51 Q221.135 1019.95 217.5 1019.95 M217.5 1016.24 Q223.31 1016.24 226.366 1020.85 Q229.445 1025.43 229.445 1034.18 Q229.445 1042.91 226.366 1047.52 Q223.31 1052.1 217.5 1052.1 Q211.69 1052.1 208.612 1047.52 Q205.556 1042.91 205.556 1034.18 Q205.556 1025.43 208.612 1020.85 Q211.69 1016.24 217.5 1016.24 Z" fill="#000000" fill-rule="evenodd" fill-opacity="1" /><path clip-path="url(#clip870)" d="M129.862 668.695 L118.056 687.144 L129.862 687.144 L129.862 668.695 M128.635 664.621 L134.515 664.621 L134.515 687.144 L139.445 687.144 L139.445 691.033 L134.515 691.033 L134.515 699.181 L129.862 699.181 L129.862 691.033 L114.26 691.033 L114.26 686.519 L128.635 664.621 Z" fill="#000000" fill-rule="evenodd" fill-opacity="1" /><path clip-path="url(#clip870)" d="M157.177 667.7 Q153.566 667.7 151.737 671.265 Q149.931 674.806 149.931 681.936 Q149.931 689.042 151.737 692.607 Q153.566 696.149 157.177 696.149 Q160.811 696.149 162.616 692.607 Q164.445 689.042 164.445 681.936 Q164.445 674.806 162.616 671.265 Q160.811 667.7 157.177 667.7 M157.177 663.996 Q162.987 663.996 166.042 668.603 Q169.121 673.186 169.121 681.936 Q169.121 690.663 166.042 695.269 Q162.987 699.853 157.177 699.853 Q151.366 699.853 148.288 695.269 Q145.232 690.663 145.232 681.936 Q145.232 673.186 148.288 668.603 Q151.366 663.996 157.177 663.996 Z" fill="#000000" fill-rule="evenodd" fill-opacity="1" /><path clip-path="url(#clip870)" d="M187.338 667.7 Q183.727 667.7 181.899 671.265 Q180.093 674.806 180.093 681.936 Q180.093 689.042 181.899 692.607 Q183.727 696.149 187.338 696.149 Q190.973 696.149 192.778 692.607 Q194.607 689.042 194.607 681.936 Q194.607 674.806 192.778 671.265 Q190.973 667.7 187.338 667.7 M187.338 663.996 Q193.149 663.996 196.204 668.603 Q199.283 673.186 199.283 681.936 Q199.283 690.663 196.204 695.269 Q193.149 699.853 187.338 699.853 Q181.528 699.853 178.45 695.269 Q175.394 690.663 175.394 681.936 Q175.394 673.186 178.45 668.603 Q181.528 663.996 187.338 663.996 Z" fill="#000000" fill-rule="evenodd" fill-opacity="1" /><path clip-path="url(#clip870)" d="M217.5 667.7 Q213.889 667.7 212.061 671.265 Q210.255 674.806 210.255 681.936 Q210.255 689.042 212.061 692.607 Q213.889 696.149 217.5 696.149 Q221.135 696.149 222.94 692.607 Q224.769 689.042 224.769 681.936 Q224.769 674.806 222.94 671.265 Q221.135 667.7 217.5 667.7 M217.5 663.996 Q223.31 663.996 226.366 668.603 Q229.445 673.186 229.445 681.936 Q229.445 690.663 226.366 695.269 Q223.31 699.853 217.5 699.853 Q211.69 699.853 208.612 695.269 Q205.556 690.663 205.556 681.936 Q205.556 673.186 208.612 668.603 Q211.69 663.996 217.5 663.996 Z" fill="#000000" fill-rule="evenodd" fill-opacity="1" /><path clip-path="url(#clip870)" d="M127.593 327.791 Q124.445 327.791 122.593 329.943 Q120.765 332.096 120.765 335.846 Q120.765 339.573 122.593 341.749 Q124.445 343.902 127.593 343.902 Q130.742 343.902 132.57 341.749 Q134.422 339.573 134.422 335.846 Q134.422 332.096 132.57 329.943 Q130.742 327.791 127.593 327.791 M136.876 313.138 L136.876 317.397 Q135.117 316.564 133.311 316.124 Q131.529 315.684 129.769 315.684 Q125.14 315.684 122.686 318.809 Q120.255 321.934 119.908 328.254 Q121.274 326.24 123.334 325.175 Q125.394 324.087 127.871 324.087 Q133.08 324.087 136.089 327.258 Q139.121 330.406 139.121 335.846 Q139.121 341.17 135.973 344.388 Q132.825 347.605 127.593 347.605 Q121.598 347.605 118.427 343.022 Q115.256 338.416 115.256 329.689 Q115.256 321.494 119.144 316.633 Q123.033 311.749 129.584 311.749 Q131.343 311.749 133.126 312.096 Q134.931 312.444 136.876 313.138 Z" fill="#000000" fill-rule="evenodd" fill-opacity="1" /><path clip-path="url(#clip870)" d="M157.177 315.453 Q153.566 315.453 151.737 319.018 Q149.931 322.559 149.931 329.689 Q149.931 336.795 151.737 340.36 Q153.566 343.902 157.177 343.902 Q160.811 343.902 162.616 340.36 Q164.445 336.795 164.445 329.689 Q164.445 322.559 162.616 319.018 Q160.811 315.453 157.177 315.453 M157.177 311.749 Q162.987 311.749 166.042 316.356 Q169.121 320.939 169.121 329.689 Q169.121 338.416 166.042 343.022 Q162.987 347.605 157.177 347.605 Q151.366 347.605 148.288 343.022 Q145.232 338.416 145.232 329.689 Q145.232 320.939 148.288 316.356 Q151.366 311.749 157.177 311.749 Z" fill="#000000" fill-rule="evenodd" fill-opacity="1" /><path clip-path="url(#clip870)" d="M187.338 315.453 Q183.727 315.453 181.899 319.018 Q180.093 322.559 180.093 329.689 Q180.093 336.795 181.899 340.36 Q183.727 343.902 187.338 343.902 Q190.973 343.902 192.778 340.36 Q194.607 336.795 194.607 329.689 Q194.607 322.559 192.778 319.018 Q190.973 315.453 187.338 315.453 M187.338 311.749 Q193.149 311.749 196.204 316.356 Q199.283 320.939 199.283 329.689 Q199.283 338.416 196.204 343.022 Q193.149 347.605 187.338 347.605 Q181.528 347.605 178.45 343.022 Q175.394 338.416 175.394 329.689 Q175.394 320.939 178.45 316.356 Q181.528 311.749 187.338 311.749 Z" fill="#000000" fill-rule="evenodd" fill-opacity="1" /><path clip-path="url(#clip870)" d="M217.5 315.453 Q213.889 315.453 212.061 319.018 Q210.255 322.559 210.255 329.689 Q210.255 336.795 212.061 340.36 Q213.889 343.902 217.5 343.902 Q221.135 343.902 222.94 340.36 Q224.769 336.795 224.769 329.689 Q224.769 322.559 222.94 319.018 Q221.135 315.453 217.5 315.453 M217.5 311.749 Q223.31 311.749 226.366 316.356 Q229.445 320.939 229.445 329.689 Q229.445 338.416 226.366 343.022 Q223.31 347.605 217.5 347.605 Q211.69 347.605 208.612 343.022 Q205.556 338.416 205.556 329.689 Q205.556 320.939 208.612 316.356 Q211.69 311.749 217.5 311.749 Z" fill="#000000" fill-rule="evenodd" fill-opacity="1" /><path clip-path="url(#clip870)" d="M14.479 905.574 L19.3487 905.574 L19.3487 911.175 Q19.3487 914.326 20.6219 915.568 Q21.895 916.777 25.2052 916.777 L28.3562 916.777 L28.3562 907.133 L32.9077 907.133 L32.9077 916.777 L64.0042 916.777 L64.0042 922.665 L32.9077 922.665 L32.9077 928.267 L28.3562 928.267 L28.3562 922.665 L25.8736 922.665 Q19.9216 922.665 17.2162 919.896 Q14.479 917.127 14.479 911.112 L14.479 905.574 Z" fill="#000000" fill-rule="evenodd" fill-opacity="1" /><path clip-path="url(#clip870)" d="M32.4621 886.858 Q32.4621 891.569 36.1542 894.306 Q39.8145 897.043 46.212 897.043 Q52.6095 897.043 56.3017 894.338 Q59.9619 891.601 59.9619 886.858 Q59.9619 882.18 56.2698 879.442 Q52.5777 876.705 46.212 876.705 Q39.8781 876.705 36.186 879.442 Q32.4621 882.18 32.4621 886.858 M27.4968 886.858 Q27.4968 879.22 32.4621 874.859 Q37.4273 870.498 46.212 870.498 Q54.9649 870.498 59.9619 874.859 Q64.9272 879.22 64.9272 886.858 Q64.9272 894.529 59.9619 898.89 Q54.9649 903.218 46.212 903.218 Q37.4273 903.218 32.4621 898.89 Q27.4968 894.529 27.4968 886.858 Z" fill="#000000" fill-rule="evenodd" fill-opacity="1" /><path clip-path="url(#clip870)" d="M33.8307 840.134 Q33.2578 841.121 33.0032 842.298 Q32.7167 843.444 32.7167 844.845 Q32.7167 849.81 35.9632 852.484 Q39.1779 855.125 45.2253 855.125 L64.0042 855.125 L64.0042 861.014 L28.3562 861.014 L28.3562 855.125 L33.8944 855.125 Q30.6479 853.279 29.0883 850.319 Q27.4968 847.359 27.4968 843.126 Q27.4968 842.521 27.5923 841.789 Q27.656 841.057 27.8151 840.166 L33.8307 840.134 Z" fill="#000000" fill-rule="evenodd" fill-opacity="1" /><path clip-path="url(#clip870)" d="M29.7248 809.77 L35.1993 809.77 Q33.8307 812.252 33.1623 814.767 Q32.4621 817.249 32.4621 819.796 Q32.4621 825.493 36.0905 828.644 Q39.6872 831.795 46.212 831.795 Q52.7369 831.795 56.3653 828.644 Q59.9619 825.493 59.9619 819.796 Q59.9619 817.249 59.2935 814.767 Q58.5933 812.252 57.2247 809.77 L62.6355 809.77 Q63.7814 812.22 64.3543 814.862 Q64.9272 817.472 64.9272 820.432 Q64.9272 828.485 59.8664 833.227 Q54.8057 837.97 46.212 837.97 Q37.491 837.97 32.4939 833.195 Q27.4968 828.389 27.4968 820.05 Q27.4968 817.345 28.0697 814.767 Q28.6108 812.189 29.7248 809.77 Z" fill="#000000" fill-rule="evenodd" fill-opacity="1" /><path clip-path="url(#clip870)" d="M44.7161 769.093 L47.5806 769.093 L47.5806 796.02 Q53.6281 795.638 56.8109 792.391 Q59.9619 789.113 59.9619 783.288 Q59.9619 779.914 59.1344 776.763 Q58.3069 773.581 56.6518 770.461 L62.1899 770.461 Q63.5267 773.612 64.227 776.923 Q64.9272 780.233 64.9272 783.638 Q64.9272 792.168 59.9619 797.166 Q54.9967 802.131 46.5303 802.131 Q37.7774 802.131 32.6531 797.42 Q27.4968 792.678 27.4968 784.657 Q27.4968 777.464 32.1438 773.294 Q36.7589 769.093 44.7161 769.093 M42.9973 774.949 Q38.1912 775.013 35.3266 777.655 Q32.4621 780.265 32.4621 784.593 Q32.4621 789.495 35.2312 792.455 Q38.0002 795.383 43.0292 795.829 L42.9973 774.949 Z" fill="#000000" fill-rule="evenodd" fill-opacity="1" /><path clip-path="url(#clip870)" d="M14.5426 724.692 Q21.8632 728.957 29.0246 731.026 Q36.186 733.095 43.5384 733.095 Q50.8908 733.095 58.1159 731.026 Q65.3091 728.925 72.5979 724.692 L72.5979 729.785 Q65.1182 734.559 57.8931 736.946 Q50.668 739.301 43.5384 739.301 Q36.4406 739.301 29.2474 736.946 Q22.0542 734.591 14.5426 729.785 L14.5426 724.692 Z" fill="#000000" fill-rule="evenodd" fill-opacity="1" /><path clip-path="url(#clip870)" d="M46.0847 697.128 Q46.0847 704.226 47.7079 706.963 Q49.3312 709.701 53.2461 709.701 Q56.3653 709.701 58.2114 707.664 Q60.0256 705.595 60.0256 702.062 Q60.0256 697.192 56.5881 694.264 Q53.1188 691.304 47.3897 691.304 L46.0847 691.304 L46.0847 697.128 M43.6657 685.447 L64.0042 685.447 L64.0042 691.304 L58.5933 691.304 Q61.8398 693.309 63.3994 696.301 Q64.9272 699.293 64.9272 703.621 Q64.9272 709.096 61.8716 712.343 Q58.7843 715.557 53.6281 715.557 Q47.6125 715.557 44.5569 711.547 Q41.5014 707.505 41.5014 699.516 L41.5014 691.304 L40.9285 691.304 Q36.8862 691.304 34.6901 693.977 Q32.4621 696.619 32.4621 701.425 Q32.4621 704.481 33.1941 707.377 Q33.9262 710.274 35.3903 712.947 L29.9795 712.947 Q28.7381 709.733 28.1334 706.709 Q27.4968 703.685 27.4968 700.821 Q27.4968 693.086 31.5072 689.267 Q35.5176 685.447 43.6657 685.447 Z" fill="#000000" fill-rule="evenodd" fill-opacity="1" /><path clip-path="url(#clip870)" d="M49.9359 673.989 L28.3562 673.989 L28.3562 668.133 L49.7131 668.133 Q54.7739 668.133 57.3202 666.159 Q59.8346 664.186 59.8346 660.239 Q59.8346 655.497 56.8109 652.76 Q53.7872 649.99 48.5673 649.99 L28.3562 649.99 L28.3562 644.134 L64.0042 644.134 L64.0042 649.99 L58.5296 649.99 Q61.7762 652.123 63.3676 654.956 Q64.9272 657.757 64.9272 661.481 Q64.9272 667.623 61.1078 670.806 Q57.2883 673.989 49.9359 673.989 M27.4968 659.253 L27.4968 659.253 Z" fill="#000000" fill-rule="evenodd" fill-opacity="1" /><path clip-path="url(#clip870)" d="M14.5426 632.994 L14.5426 627.901 Q22.0542 623.127 29.2474 620.772 Q36.4406 618.385 43.5384 618.385 Q50.668 618.385 57.8931 620.772 Q65.1182 623.127 72.5979 627.901 L72.5979 632.994 Q65.3091 628.761 58.1159 626.692 Q50.8908 624.591 43.5384 624.591 Q36.186 624.591 29.0246 626.692 Q21.8632 628.761 14.5426 632.994 Z" fill="#000000" fill-rule="evenodd" fill-opacity="1" /><path clip-path="url(#clip870)" d="M1084.88 35.9153 Q1087.68 30.8922 1091.57 28.5022 Q1095.46 26.1121 1100.72 26.1121 Q1107.81 26.1121 1111.66 31.0947 Q1115.51 36.0368 1115.51 45.1919 L1115.51 72.576 L1108.01 72.576 L1108.01 45.4349 Q1108.01 38.913 1105.7 35.7533 Q1103.4 32.5936 1098.66 32.5936 Q1092.86 32.5936 1089.5 36.4419 Q1086.14 40.2903 1086.14 46.9338 L1086.14 72.576 L1078.64 72.576 L1078.64 45.4349 Q1078.64 38.8725 1076.34 35.7533 Q1074.03 32.5936 1069.21 32.5936 Q1063.49 32.5936 1060.13 36.4824 Q1056.77 40.3308 1056.77 46.9338 L1056.77 72.576 L1049.28 72.576 L1049.28 27.2059 L1056.77 27.2059 L1056.77 34.2544 Q1059.32 30.082 1062.89 28.0971 Q1066.45 26.1121 1071.35 26.1121 Q1076.29 26.1121 1079.74 28.6237 Q1083.22 31.1352 1084.88 35.9153 Z" fill="#000000" fill-rule="evenodd" fill-opacity="1" /><path clip-path="url(#clip870)" d="M1129.6 54.671 L1129.6 27.2059 L1137.06 27.2059 L1137.06 54.3874 Q1137.06 60.8284 1139.57 64.0691 Q1142.08 67.2693 1147.1 67.2693 Q1153.14 67.2693 1156.62 63.421 Q1160.15 59.5726 1160.15 52.9291 L1160.15 27.2059 L1167.6 27.2059 L1167.6 72.576 L1160.15 72.576 L1160.15 65.6084 Q1157.43 69.7404 1153.83 71.7658 Q1150.26 73.7508 1145.52 73.7508 Q1137.71 73.7508 1133.66 68.8897 Q1129.6 64.0286 1129.6 54.671 M1148.36 26.1121 L1148.36 26.1121 Z" fill="#000000" fill-rule="evenodd" fill-opacity="1" /><path clip-path="url(#clip870)" d="M1211.88 28.5427 L1211.88 35.5912 Q1208.72 33.9709 1205.32 33.1607 Q1201.91 32.3505 1198.27 32.3505 Q1192.72 32.3505 1189.92 34.0519 Q1187.17 35.7533 1187.17 39.156 Q1187.17 41.7486 1189.15 43.2475 Q1191.14 44.7058 1197.13 46.0426 L1199.69 46.6097 Q1207.63 48.3111 1210.95 51.4303 Q1214.31 54.509 1214.31 60.0587 Q1214.31 66.3781 1209.29 70.0644 Q1204.3 73.7508 1195.55 73.7508 Q1191.91 73.7508 1187.94 73.0216 Q1184.01 72.3329 1179.63 70.9151 L1179.63 63.2184 Q1183.77 65.3654 1187.78 66.4591 Q1191.79 67.5124 1195.72 67.5124 Q1200.98 67.5124 1203.82 65.73 Q1206.65 63.9071 1206.65 60.6258 Q1206.65 57.5877 1204.59 55.9673 Q1202.56 54.3469 1195.63 52.8481 L1193.04 52.2405 Q1186.11 50.7821 1183.04 47.7845 Q1179.96 44.7463 1179.96 39.4801 Q1179.96 33.0797 1184.49 29.5959 Q1189.03 26.1121 1197.38 26.1121 Q1201.51 26.1121 1205.15 26.7198 Q1208.8 27.3274 1211.88 28.5427 Z" fill="#000000" fill-rule="evenodd" fill-opacity="1" /><path clip-path="url(#clip870)" d="M1258.83 28.9478 L1258.83 35.9153 Q1255.67 34.1734 1252.47 33.3227 Q1249.31 32.4315 1246.07 32.4315 Q1238.82 32.4315 1234.81 37.0496 Q1230.8 41.6271 1230.8 49.9314 Q1230.8 58.2358 1234.81 62.8538 Q1238.82 67.4314 1246.07 67.4314 Q1249.31 67.4314 1252.47 66.5807 Q1255.67 65.6895 1258.83 63.9476 L1258.83 70.8341 Q1255.71 72.2924 1252.35 73.0216 Q1249.03 73.7508 1245.26 73.7508 Q1235.01 73.7508 1228.97 67.3098 Q1222.94 60.8689 1222.94 49.9314 Q1222.94 38.832 1229.01 32.472 Q1235.13 26.1121 1245.74 26.1121 Q1249.19 26.1121 1252.47 26.8413 Q1255.75 27.5299 1258.83 28.9478 Z" fill="#000000" fill-rule="evenodd" fill-opacity="1" /><path clip-path="url(#clip870)" d="M1271.79 9.54393 L1279.25 9.54393 L1279.25 72.576 L1271.79 72.576 L1271.79 9.54393 Z" fill="#000000" fill-rule="evenodd" fill-opacity="1" /><path clip-path="url(#clip870)" d="M1333.65 48.0275 L1333.65 51.6733 L1299.38 51.6733 Q1299.86 59.3701 1304 63.421 Q1308.17 67.4314 1315.58 67.4314 Q1319.88 67.4314 1323.89 66.3781 Q1327.94 65.3249 1331.91 63.2184 L1331.91 70.267 Q1327.9 71.9684 1323.68 72.8596 Q1319.47 73.7508 1315.14 73.7508 Q1304.28 73.7508 1297.92 67.4314 Q1291.6 61.1119 1291.6 50.3365 Q1291.6 39.1965 1297.6 32.6746 Q1303.63 26.1121 1313.84 26.1121 Q1322.99 26.1121 1328.3 32.0264 Q1333.65 37.9003 1333.65 48.0275 M1326.2 45.84 Q1326.11 39.7232 1322.75 36.0774 Q1319.43 32.4315 1313.92 32.4315 Q1307.68 32.4315 1303.92 35.9558 Q1300.19 39.4801 1299.62 45.8805 L1326.2 45.84 Z" fill="#000000" fill-rule="evenodd" fill-opacity="1" /><path clip-path="url(#clip870)" d="M1395.22 9.54393 L1395.22 15.7418 L1388.09 15.7418 Q1384.08 15.7418 1382.5 17.3622 Q1380.96 18.9825 1380.96 23.1955 L1380.96 27.2059 L1393.24 27.2059 L1393.24 32.9987 L1380.96 32.9987 L1380.96 72.576 L1373.47 72.576 L1373.47 32.9987 L1366.34 32.9987 L1366.34 27.2059 L1373.47 27.2059 L1373.47 24.0462 Q1373.47 16.471 1376.99 13.0277 Q1380.52 9.54393 1388.17 9.54393 L1395.22 9.54393 Z" fill="#000000" fill-rule="evenodd" fill-opacity="1" /><path clip-path="url(#clip870)" d="M1419.04 32.4315 Q1413.05 32.4315 1409.56 37.1306 Q1406.08 41.7891 1406.08 49.9314 Q1406.08 58.0738 1409.52 62.7728 Q1413.01 67.4314 1419.04 67.4314 Q1425 67.4314 1428.48 62.7323 Q1431.96 58.0333 1431.96 49.9314 Q1431.96 41.8701 1428.48 37.1711 Q1425 32.4315 1419.04 32.4315 M1419.04 26.1121 Q1428.76 26.1121 1434.31 32.4315 Q1439.86 38.7509 1439.86 49.9314 Q1439.86 61.0714 1434.31 67.4314 Q1428.76 73.7508 1419.04 73.7508 Q1409.28 73.7508 1403.73 67.4314 Q1398.22 61.0714 1398.22 49.9314 Q1398.22 38.7509 1403.73 32.4315 Q1409.28 26.1121 1419.04 26.1121 Z" fill="#000000" fill-rule="evenodd" fill-opacity="1" /><path clip-path="url(#clip870)" d="M1478.51 34.1734 Q1477.25 33.4443 1475.75 33.1202 Q1474.3 32.7556 1472.51 32.7556 Q1466.19 32.7556 1462.79 36.8875 Q1459.43 40.9789 1459.43 48.6757 L1459.43 72.576 L1451.94 72.576 L1451.94 27.2059 L1459.43 27.2059 L1459.43 34.2544 Q1461.78 30.1225 1465.55 28.1376 Q1469.31 26.1121 1474.7 26.1121 Q1475.47 26.1121 1476.4 26.2337 Q1477.33 26.3147 1478.47 26.5172 L1478.51 34.1734 Z" fill="#000000" fill-rule="evenodd" fill-opacity="1" /><path clip-path="url(#clip870)" d="M1517.15 28.9478 L1517.15 35.9153 Q1514 34.1734 1510.79 33.3227 Q1507.64 32.4315 1504.39 32.4315 Q1497.14 32.4315 1493.13 37.0496 Q1489.12 41.6271 1489.12 49.9314 Q1489.12 58.2358 1493.13 62.8538 Q1497.14 67.4314 1504.39 67.4314 Q1507.64 67.4314 1510.79 66.5807 Q1514 65.6895 1517.15 63.9476 L1517.15 70.8341 Q1514.04 72.2924 1510.67 73.0216 Q1507.35 73.7508 1503.58 73.7508 Q1493.34 73.7508 1487.3 67.3098 Q1481.26 60.8689 1481.26 49.9314 Q1481.26 38.832 1487.34 32.472 Q1493.46 26.1121 1504.07 26.1121 Q1507.51 26.1121 1510.79 26.8413 Q1514.08 27.5299 1517.15 28.9478 Z" fill="#000000" fill-rule="evenodd" fill-opacity="1" /><path clip-path="url(#clip870)" d="M1568.93 48.0275 L1568.93 51.6733 L1534.65 51.6733 Q1535.14 59.3701 1539.27 63.421 Q1543.45 67.4314 1550.86 67.4314 Q1555.15 67.4314 1559.16 66.3781 Q1563.21 65.3249 1567.18 63.2184 L1567.18 70.267 Q1563.17 71.9684 1558.96 72.8596 Q1554.75 73.7508 1550.41 73.7508 Q1539.56 73.7508 1533.2 67.4314 Q1526.88 61.1119 1526.88 50.3365 Q1526.88 39.1965 1532.87 32.6746 Q1538.91 26.1121 1549.12 26.1121 Q1558.27 26.1121 1563.58 32.0264 Q1568.93 37.9003 1568.93 48.0275 M1561.47 45.84 Q1561.39 39.7232 1558.03 36.0774 Q1554.71 32.4315 1549.2 32.4315 Q1542.96 32.4315 1539.19 35.9558 Q1535.46 39.4801 1534.9 45.8805 L1561.47 45.84 Z" fill="#000000" fill-rule="evenodd" fill-opacity="1" /><polyline clip-path="url(#clip872)" style="stroke:#009af9; stroke-linecap:butt; stroke-linejoin:round; stroke-width:4; stroke-opacity:1; fill:none" points="
  324.52,1386.4 325.504,1386.4 326.489,1386.4 327.473,1386.4 328.458,1386.4 329.442,1386.4 330.427,1386.4 331.412,1386.4 332.396,1386.4 333.381,1386.4 
  334.365,1386.4 335.35,1386.4 336.335,1386.4 337.319,1386.4 338.304,1386.4 339.288,1386.4 340.273,1386.4 341.257,1386.4 342.242,1386.4 343.227,1386.39 
  344.211,1386.38 345.196,1386.36 346.18,1386.33 347.165,1386.3 348.15,1386.25 349.134,1386.2 350.119,1386.15 351.103,1386.08 352.088,1386.01 353.072,1385.93 
  354.057,1385.84 355.042,1385.75 356.026,1385.65 357.011,1385.54 357.995,1385.43 358.98,1385.31 359.964,1385.18 360.949,1385.05 361.934,1384.91 362.918,1384.76 
  363.903,1384.62 364.887,1384.47 365.872,1384.31 366.857,1384.15 367.841,1383.98 368.826,1383.81 369.81,1383.63 370.795,1383.46 371.779,1383.27 372.764,1383.08 
  373.749,1382.89 374.733,1382.69 375.718,1382.49 376.702,1382.27 377.687,1382.07 378.672,1381.85 379.656,1381.65 380.641,1381.43 381.625,1381.2 382.61,1380.99 
  383.594,1380.76 384.579,1380.52 385.564,1380.29 386.548,1380.05 387.533,1379.82 388.517,1379.58 389.502,1379.35 390.486,1379.1 391.471,1378.87 392.456,1378.62 
  393.44,1378.38 394.425,1378.14 395.409,1377.9 396.394,1377.65 397.379,1377.4 398.363,1377.15 399.348,1376.91 400.332,1376.65 401.317,1376.4 402.301,1376.14 
  403.286,1375.89 404.271,1375.63 405.255,1375.38 406.24,1375.14 407.224,1374.88 408.209,1374.64 409.194,1374.38 410.178,1374.13 411.163,1373.86 412.147,1373.61 
  413.132,1373.37 414.116,1373.11 415.101,1372.87 416.086,1372.63 417.07,1372.38 418.055,1372.14 419.039,1371.89 420.024,1371.65 421.008,1371.41 421.993,1371.16 
  422.978,1370.93 423.962,1370.7 424.947,1370.46 425.931,1370.23 426.916,1370.01 427.901,1369.77 428.885,1369.54 429.87,1369.33 430.854,1369.09 431.839,1368.87 
  432.823,1368.66 433.808,1368.43 434.793,1368.21 435.777,1368.01 436.762,1367.78 437.746,1367.57 438.731,1367.37 439.716,1367.14 440.7,1366.93 441.685,1366.73 
  442.669,1366.55 443.654,1366.33 444.638,1366.14 445.623,1365.95 446.608,1365.74 447.592,1365.54 448.577,1365.36 449.561,1365.18 450.546,1364.98 451.53,1364.79 
  452.515,1364.62 453.5,1364.42 454.484,1364.22 455.469,1364.05 456.453,1363.89 457.438,1363.69 458.423,1363.51 459.407,1363.34 460.392,1363.19 461.376,1363 
  462.361,1362.83 463.345,1362.67 464.33,1362.52 465.315,1362.34 466.299,1362.16 467.284,1361.99 468.268,1361.83 469.253,1361.61 470.238,1361.41 471.222,1361.22 
  472.207,1361.03 473.191,1360.79 474.176,1360.56 475.16,1360.34 476.145,1360.13 477.13,1359.87 478.114,1359.61 479.099,1359.36 480.083,1359.13 481.068,1358.9 
  482.052,1358.62 483.037,1358.35 484.022,1358.09 485.006,1357.84 485.991,1357.59 486.975,1357.29 487.96,1357 488.945,1356.72 489.929,1356.46 490.914,1356.13 
  491.898,1355.82 492.883,1355.52 493.867,1355.22 494.852,1354.95 495.837,1354.61 496.821,1354.28 497.806,1353.98 498.79,1353.68 499.775,1353.39 500.76,1353.04 
  501.744,1352.71 502.729,1352.38 503.713,1352.08 504.698,1351.78 505.682,1351.41 506.667,1351.07 507.652,1350.73 508.636,1350.42 509.621,1350.12 510.605,1349.84 
  511.59,1349.48 512.574,1349.13 513.559,1348.8 514.544,1348.48 515.528,1348.19 516.513,1347.81 517.497,1347.47 518.482,1347.12 519.467,1346.81 520.451,1346.5 
  521.436,1346.21 522.42,1345.84 523.405,1345.49 524.389,1345.18 525.374,1344.87 526.359,1344.58 527.343,1344.2 528.328,1343.86 529.312,1343.51 530.297,1343.2 
  531.282,1342.91 532.266,1342.61 533.251,1342.23 534.235,1341.84 535.22,1341.48 536.204,1341.14 537.189,1340.79 538.174,1340.46 539.158,1340.02 540.143,1339.6 
  541.127,1339.2 542.112,1338.79 543.096,1338.41 544.081,1338.04 545.066,1337.66 546.05,1337.19 547.035,1336.71 548.019,1336.26 549.004,1335.83 549.989,1335.38 
  550.973,1334.95 551.958,1334.43 552.942,1333.89 553.927,1333.37 554.911,1332.89 555.896,1332.4 556.881,1331.92 557.865,1331.46 558.85,1330.89 559.834,1330.33 
  560.819,1329.79 561.804,1329.26 562.788,1328.73 563.773,1328.22 564.757,1327.73 565.742,1327.1 566.726,1326.49 567.711,1325.9 568.696,1325.35 569.68,1324.77 
  570.665,1324.21 571.649,1323.68 572.634,1322.99 573.618,1322.35 574.603,1321.72 575.588,1321.14 576.572,1320.52 577.557,1319.91 578.541,1319.35 579.526,1318.65 
  580.511,1317.95 581.495,1317.27 582.48,1316.63 583.464,1315.95 584.449,1315.31 585.433,1314.67 586.418,1314.07 587.403,1313.27 588.387,1312.51 589.372,1311.81 
  590.356,1311.1 591.341,1310.38 592.326,1309.65 593.31,1308.98 594.295,1308.13 595.279,1307.33 596.264,1306.53 597.248,1305.72 598.233,1304.96 599.218,1304.19 
  600.202,1303.4 601.187,1302.67 602.171,1301.75 603.156,1300.89 604.141,1300.01 605.125,1299.12 606.11,1298.28 607.094,1297.44 608.079,1296.65 609.063,1295.83 
  610.048,1294.82 611.033,1293.86 612.017,1292.9 613.002,1291.99 613.986,1291.06 614.971,1290.12 615.955,1289.24 616.94,1288.39 617.925,1287.54 618.909,1286.48 
  619.894,1285.47 620.878,1284.45 621.863,1283.48 622.848,1282.56 623.832,1281.64 624.817,1280.67 625.801,1279.78 626.786,1278.74 627.77,1277.7 628.755,1276.61 
  629.74,1275.57 630.724,1274.51 631.709,1273.49 632.693,1272.55 633.678,1271.55 634.663,1270.53 635.647,1269.35 636.632,1268.25 637.616,1267.08 638.601,1266 
  639.585,1264.86 640.57,1263.8 641.555,1262.72 642.539,1261.66 643.524,1260.69 644.508,1259.44 645.493,1258.17 646.477,1256.93 647.462,1255.79 648.447,1254.61 
  649.431,1253.45 650.416,1252.29 651.4,1251.15 652.385,1249.98 653.37,1248.9 654.354,1247.61 655.339,1246.42 656.323,1245.01 657.308,1243.72 658.292,1242.52 
  659.277,1241.33 660.262,1240.25 661.246,1239.12 662.231,1237.88 663.215,1236.53 664.2,1235.18 665.185,1233.8 666.169,1232.53 667.154,1231.27 668.138,1229.98 
  669.123,1228.8 670.107,1227.47 671.092,1226.25 672.077,1225.11 673.061,1223.74 674.046,1222.31 675.03,1220.85 676.015,1219.51 676.999,1218.16 677.984,1216.92 
  678.969,1215.61 679.953,1214.3 680.938,1212.95 681.922,1211.71 682.907,1210.19 683.892,1208.64 684.876,1207.18 685.861,1205.84 686.845,1204.52 687.83,1203.13 
  688.814,1201.71 689.799,1200.24 690.784,1198.89 691.768,1197.61 692.753,1196.47 693.737,1194.88 694.722,1193.23 695.707,1191.72 696.691,1190.28 697.676,1188.86 
  698.66,1187.39 699.645,1185.98 700.629,1184.57 701.614,1183.23 702.599,1181.87 703.583,1180.65 704.568,1178.87 705.552,1177.24 706.537,1175.76 707.521,1174.34 
  708.506,1172.88 709.491,1171.16 710.475,1169.57 711.46,1168.14 712.444,1166.75 713.429,1165.35 714.414,1164.07 715.398,1162.32 716.383,1160.75 717.367,1158.98 
  718.352,1157.28 719.336,1155.72 720.321,1154.33 721.306,1152.84 722.29,1151.25 723.275,1149.78 724.259,1148.46 725.244,1146.99 726.229,1145.2 727.213,1143.37 
  728.198,1141.57 729.182,1139.96 730.167,1138.47 731.151,1136.96 732.136,1135.44 733.121,1133.7 734.105,1132.16 735.09,1130.6 736.074,1129.02 737.059,1127.56 
  738.043,1125.96 739.028,1124.39 740.013,1122.73 740.997,1120.85 741.982,1119.09 742.966,1117.4 743.951,1115.88 744.936,1114.45 745.92,1112.62 746.905,1110.97 
  747.889,1109.45 748.874,1108.08 749.858,1106.15 750.843,1104.18 751.828,1102.4 752.812,1100.51 753.797,1098.65 754.781,1096.99 755.766,1095.42 756.751,1093.83 
  757.735,1092.39 758.72,1090.7 759.704,1088.93 760.689,1087.36 761.673,1085.72 762.658,1083.67 763.643,1081.85 764.627,1080.2 765.612,1078.67 766.596,1077.3 
  767.581,1075.24 768.565,1073.25 769.55,1071.51 770.535,1069.97 771.519,1068.41 772.504,1066.94 773.488,1065.37 774.473,1063.73 775.458,1061.83 776.442,1059.68 
  777.427,1057.77 778.411,1056.04 779.396,1054.14 780.38,1052.48 781.365,1050.76 782.35,1048.98 783.334,1047.31 784.319,1045.78 785.303,1044.21 786.288,1042.18 
  787.273,1040.42 788.257,1038.48 789.242,1036.72 790.226,1034.75 791.211,1032.82 792.195,1030.74 793.18,1028.93 794.165,1027.18 795.149,1025.59 796.134,1023.74 
  797.118,1022.15 798.103,1020.16 799.087,1018.2 800.072,1016.46 801.057,1014.98 802.041,1012.99 803.026,1011.05 804.01,1009.39 804.995,1007.53 805.98,1005.36 
  806.964,1003.24 807.949,1001.15 808.933,999.244 809.918,997.561 810.902,996.129 811.887,994.336 812.872,992.472 813.856,990.861 814.841,989.147 815.825,987.149 
  816.81,984.989 817.795,983.049 818.779,981.122 819.764,979.002 820.748,977.121 821.733,975.298 822.717,973.647 823.702,971.852 824.687,970.051 825.671,968.51 
  826.656,966.193 827.64,964.16 828.625,962.445 829.609,960.46 830.594,958.328 831.579,956.244 832.563,954.067 833.548,952.205 834.532,950.239 835.517,948.357 
  836.502,946.495 837.486,944.61 838.471,942.754 839.455,940.902 840.44,939.371 841.424,937.729 842.409,935.648 843.394,933.565 844.378,931.113 845.363,929.021 
  846.347,927.092 847.332,925.234 848.317,923.504 849.301,921.633 850.286,919.323 851.27,917.021 852.255,914.993 853.239,912.734 854.224,910.803 855.209,909.148 
  856.193,907.79 857.178,906.263 858.162,904.346 859.147,902.476 860.131,900.906 861.116,898.779 862.101,896.969 863.085,895.285 864.07,893.833 865.054,891.875 
  866.039,890.256 867.024,888.433 868.008,886.728 868.993,885.188 869.977,883.964 870.962,882.258 871.946,880.458 872.931,878.43 873.916,876.483 874.9,874.88 
  875.885,873.187 876.869,871.776 877.854,870.119 878.839,868.556 879.823,866.871 880.808,865.416 881.792,863.91 882.777,862.495 883.761,860.812 884.746,858.556 
  885.731,856.628 886.715,854.863 887.7,853.031 888.684,851.368 889.669,849.794 890.653,848.174 891.638,846.257 892.623,844.559 893.607,842.75 894.592,841.255 
  895.576,839.335 896.561,837.486 897.546,835.139 898.53,833.194 899.515,831.648 900.499,830.205 901.484,828.628 902.468,827.363 903.453,825.079 904.438,823.118 
  905.422,820.973 906.407,819.222 907.391,817.237 908.376,815.581 909.361,814.165 910.345,813.108 911.33,811.872 912.314,809.838 913.299,807.705 914.283,804.994 
  915.268,802.634 916.253,800.676 917.237,799.086 918.222,797.443 919.206,796.088 920.191,794.237 921.176,792.284 922.16,790.763 923.145,788.707 924.129,786.408 
  925.114,784.526 926.098,782.538 927.083,780.506 928.068,778.212 929.052,776.308 930.037,773.974 931.021,771.976 932.006,770.401 932.99,768.922 933.975,766.907 
  934.96,765.216 935.944,763.021 936.929,761.285 937.913,759.069 938.898,756.521 939.883,754.198 940.867,752.348 941.852,750.164 942.836,748.449 943.821,745.61 
  944.805,743.226 945.79,741.292 946.775,739.833 947.759,738.322 948.744,736.051 949.728,733.558 950.713,731.455 951.698,729.733 952.682,727.494 953.667,725.486 
  954.651,723.607 955.636,721.22 956.62,718.802 957.605,716.899 958.59,714.637 959.574,712.771 960.559,711.291 961.543,709.058 962.528,706.811 963.512,704.683 
  964.497,702.514 965.482,700.852 966.466,698.584 967.451,696.424 968.435,693.412 969.42,690.976 970.405,688.413 971.389,686.314 972.374,684.095 973.358,682.015 
  974.343,680.251 975.327,678.453 976.312,676.597 977.297,675.101 978.281,673.439 979.266,670.551 980.25,667.466 981.235,664.955 982.22,662.778 983.204,660.564 
  984.189,658.896 985.173,657.492 986.158,656.151 987.142,655.006 988.127,654.349 989.112,651.642 990.096,648.441 991.081,645.453 992.065,642.836 993.05,640.361 
  994.034,638.461 995.019,637.036 996.004,635.999 996.988,634.918 997.973,633.234 998.957,631.428 999.942,629.645 1000.93,627.548 1001.91,625.349 1002.9,622.928 
  1003.88,620.76 1004.86,618.874 1005.85,617.081 1006.83,614.791 1007.82,613.054 1008.8,610.858 1009.79,608.806 1010.77,607.196 1011.76,605.421 1012.74,604.09 
  1013.73,602.958 1014.71,600.55 1015.7,598.143 1016.68,595.833 1017.66,593.497 1018.65,591.742 1019.63,589.388 1020.62,587.663 1021.6,585.857 1022.59,584.055 
  1023.57,581.712 1024.56,579.813 1025.54,577.319 1026.53,575.427 1027.51,574.127 1028.49,572.586 1029.48,570.338 1030.46,568.034 1031.45,565.092 1032.43,562.569 
  1033.42,560.578 1034.4,559.165 1035.39,556.659 1036.37,554.604 1037.36,552.161 1038.34,550.025 1039.33,548.497 1040.31,546.793 1041.29,543.823 1042.28,541.463 
  1043.26,539.73 1044.25,538.201 1045.23,536.123 1046.22,533.897 1047.2,531.292 1048.19,529.358 1049.17,527.993 1050.16,526.232 1051.14,525.087 1052.12,522.931 
  1053.11,521.197 1054.09,519.429 1055.08,517.346 1056.06,514.978 1057.05,513.256 1058.03,512.074 1059.02,510.457 1060,507.737 1060.99,505.739 1061.97,504.015 
  1062.96,502.36 1063.94,500.49 1064.92,499.142 1065.91,496.8 1066.89,494.911 1067.88,493.236 1068.86,491.442 1069.85,489.286 1070.83,487.704 1071.82,486.132 
  1072.8,484.337 1073.79,482.239 1074.77,480.476 1075.75,478.529 1076.74,476.732 1077.72,474.669 1078.71,473.063 1079.69,470.941 1080.68,468.946 1081.66,466.882 
  1082.65,465.455 1083.63,463.884 1084.62,462.25 1085.6,460.931 1086.59,458.842 1087.57,456.563 1088.55,453.642 1089.54,450.451 1090.52,447.419 1091.51,444.629 
  1092.49,442.551 1093.48,440.318 1094.46,438.488 1095.45,437.373 1096.43,436.395 1097.42,435.81 1098.4,435.492 1099.38,435.582 1100.37,431.551 1101.35,428.361 
  1102.34,425.377 1103.32,422.842 1104.31,421.026 1105.29,418.857 1106.28,417.459 1107.26,416.681 1108.25,416.037 1109.23,415.931 1110.22,416.23 1111.2,415.307 
  1112.18,413.197 1113.17,411.113 1114.15,408.721 1115.14,406.079 1116.12,403.392 1117.11,401.437 1118.09,399.983 1119.08,398.844 1120.06,398.354 1121.05,397.164 
  1122.03,395.796 1123.01,393.743 1124,391.043 1124.98,389.122 1125.97,387.623 1126.95,385.665 1127.94,384.201 1128.92,382.234 1129.91,380.688 1130.89,378.652 
  1131.88,376.459 1132.86,374.509 1133.84,371.967 1134.83,369.806 1135.81,368.465 1136.8,366.25 1137.78,364.788 1138.77,364.095 1139.75,363.871 1140.74,361.283 
  1141.72,358.791 1142.71,356.234 1143.69,354.216 1144.68,352.956 1145.66,352.016 1146.64,350.701 1147.63,349.863 1148.61,349.762 1149.6,348.781 1150.58,346.976 
  1151.57,345.043 1152.55,343.562 1153.54,342.835 1154.52,341.676 1155.51,340.047 1156.49,339.014 1157.47,338.724 1158.46,336.479 1159.44,334.347 1160.43,332.743 
  1161.41,331.652 1162.4,330.488 1163.38,328.816 1164.37,327.623 1165.35,325.977 1166.34,324.339 1167.32,323.464 1168.31,322.357 1169.29,319.87 1170.27,318.061 
  1171.26,316.044 1172.24,314.558 1173.23,313.012 1174.21,311.793 1175.2,310.271 1176.18,309.275 1177.17,307.289 1178.15,305.201 1179.14,303.469 1180.12,301.735 
  1181.1,300.868 1182.09,300.315 1183.07,299.725 1184.06,297.214 1185.04,295.528 1186.03,294.395 1187.01,293.16 1188,292.442 1188.98,292.26 1189.97,291.782 
  1190.95,290.394 1191.94,288.625 1192.92,287.055 1193.9,285.634 1194.89,284.997 1195.87,284.182 1196.86,283.262 1197.84,281.803 1198.83,280.562 1199.81,279.536 
  1200.8,278.859 1201.78,278.085 1202.77,276.344 1203.75,275.115 1204.73,274.644 1205.72,273.264 1206.7,272.742 1207.69,270.299 1208.67,268.774 1209.66,267.513 
  1210.64,266.554 1211.63,265.017 1212.61,262.597 1213.6,260.973 1214.58,260.211 1215.57,258.339 1216.55,257.044 1217.53,256.081 1218.52,255.151 1219.5,254.542 
  1220.49,253.66 1221.47,253.202 1222.46,252.695 1223.44,252.361 1224.43,251.519 1225.41,250.235 1226.4,249.232 1227.38,248.904 1228.36,248.494 1229.35,246.557 
  1230.33,245.464 1231.32,244.987 1232.3,244.481 1233.29,243.016 1234.27,242.259 1235.26,241.262 1236.24,239.795 1237.23,239.197 1238.21,238.806 1239.2,239.23 
  1240.18,237.132 1241.16,235.735 1242.15,234.93 1243.13,233.671 1244.12,232.57 1245.1,231.668 1246.09,230.065 1247.07,229.01 1248.06,227.787 1249.04,226.163 
  1250.03,225.24 1251.01,225.03 1251.99,224.306 1252.98,223.697 1253.96,223.378 1254.95,223.547 1255.93,223.688 1256.92,222.617 1257.9,222.19 1258.89,220.423 
  1259.87,219.016 1260.86,217.971 1261.84,216.767 1262.83,216.399 1263.81,214.977 1264.79,213.52 1265.78,212.884 1266.76,211.972 1267.75,211.919 1268.73,212.576 
  1269.72,213.008 1270.7,213.158 1271.69,212.812 1272.67,211.634 1273.66,210.214 1274.64,208.526 1275.62,207.708 1276.61,206.412 1277.59,205.182 1278.58,203.695 
  1279.56,202.58 1280.55,202.321 1281.53,201.848 1282.52,201.218 1283.5,201.163 1284.49,200.977 1285.47,201.572 1286.45,202.394 1287.44,201.285 1288.42,200.839 
  1289.41,198.821 1290.39,196.842 1291.38,195.525 1292.36,194.911 1293.35,194.137 1294.33,194.012 1295.32,193.698 1296.3,193.66 1297.29,193.95 1298.27,194.572 
  1299.25,195.368 1300.24,196.459 1301.22,197.052 1302.21,195.529 1303.19,193.474 1304.18,192.266 1305.16,190.362 1306.15,188.394 1307.13,187.121 1308.12,186.715 
  1309.1,186.067 1310.08,185.667 1311.07,185.74 1312.05,185.971 1313.04,187.018 1314.02,188.059 1315.01,188.06 1315.99,186.182 1316.98,184.186 1317.96,182.827 
  1318.95,182.356 1319.93,181.71 1320.92,181.059 1321.9,180.288 1322.88,179.998 1323.87,180.114 1324.85,180.462 1325.84,181.344 1326.82,182.621 1327.81,184.654 
  1328.79,185.524 1329.78,184.926 1330.76,182.251 1331.75,179.683 1332.73,178.154 1333.71,177.201 1334.7,176.83 1335.68,175.733 1336.67,175.574 1337.65,175.683 
  1338.64,175.825 1339.62,176.717 1340.61,177.221 1341.59,178.234 1342.58,177.913 1343.56,176.255 1344.55,175.175 1345.53,174.834 1346.51,173.421 1347.5,171.706 
  1348.48,170.906 1349.47,170.643 1350.45,170.61 1351.44,171.133 1352.42,172.298 1353.41,173.97 1354.39,175.605 1355.38,177.262 1356.36,176.884 1357.34,176.291 
  1358.33,175.114 1359.31,173.385 1360.3,172.532 1361.28,171.911 1362.27,171.458 1363.25,170.396 1364.24,170.001 1365.22,169.929 1366.21,170.063 1367.19,171.057 
  1368.18,172.632 1369.16,173.547 1370.14,173.249 1371.13,171.743 1372.11,170.036 1373.1,167.694 1374.08,166.331 1375.07,165.924 1376.05,165.268 1377.04,165.226 
  1378.02,165.819 1379.01,167.162 1379.99,168.036 1380.97,169.699 1381.96,171.253 1382.94,172.075 1383.93,172.492 1384.91,171.845 1385.9,172.03 1386.88,172.228 
  1387.87,170.945 1388.85,169.012 1389.84,167.761 1390.82,167.358 1391.81,167.052 1392.79,167.543 1393.77,168.56 1394.76,169.855 1395.74,170.536 1396.73,170.54 
  1397.71,169.572 1398.7,167.69 1399.68,165.743 1400.67,164.3 1401.65,162.84 1402.64,162.315 1403.62,162.679 1404.6,163.148 1405.59,163.571 1406.57,164.655 
  1407.56,165.709 1408.54,167.488 1409.53,169.025 1410.51,171.215 1411.5,171.825 1412.48,170.461 1413.47,169.949 1414.45,169.452 1415.44,168.957 1416.42,167.876 
  1417.4,167.014 1418.39,166.406 1419.37,166.677 1420.36,167.164 1421.34,168.111 1422.33,168.81 1423.31,168.568 1424.3,168.352 1425.28,167.323 1426.27,165.143 
  1427.25,163.349 1428.23,162.444 1429.22,161.374 1430.2,161.108 1431.19,161.178 1432.17,161.773 1433.16,162.651 1434.14,164.155 1435.13,166.231 1436.11,167.742 
  1437.1,169.158 1438.08,169.842 1439.06,169.67 1440.05,168.575 1441.03,168.404 1442.02,167.917 1443,167.471 1443.99,167.617 1444.97,166.845 1445.96,166.684 
  1446.94,167.13 1447.93,168.162 1448.91,168.014 1449.9,167.042 1450.88,166.9 1451.86,167.613 1452.85,166.289 1453.83,163.67 1454.82,162.033 1455.8,161.374 
  1456.79,160.798 1457.77,161.007 1458.76,161.208 1459.74,161.939 1460.73,163.515 1461.71,165.024 1462.69,166.109 1463.68,166.911 1464.66,167.651 1465.65,168.309 
  1466.63,168.549 1467.62,167.998 1468.6,167.011 1469.59,166.478 1470.57,166.308 1471.56,166.758 1472.54,167.792 1473.53,168.202 1474.51,168.455 1475.49,168.051 
  1476.48,167.251 1477.46,167.154 1478.45,166.549 1479.43,165.969 1480.42,165.162 1481.4,163.509 1482.39,162.083 1483.37,161.375 1484.36,160.978 1485.34,161.36 
  1486.32,161.653 1487.31,162.675 1488.29,164.201 1489.28,164.435 1490.26,165.467 1491.25,165.727 1492.23,166.491 1493.22,168.055 1494.2,168.007 1495.19,166.433 
  1496.17,165.461 1497.16,165.389 1498.14,166.218 1499.12,167.511 1500.11,168.515 1501.09,169.632 1502.08,169.144 1503.06,167.899 1504.05,166.877 1505.03,166.602 
  1506.02,165.921 1507,165.841 1507.99,164.906 1508.97,163.639 1509.95,162.603 1510.94,161.603 1511.92,161.489 1512.91,161.49 1513.89,162.39 1514.88,163.111 
  1515.86,163.689 1516.85,164.322 1517.83,164.754 1518.82,165.309 1519.8,165.49 1520.79,166.542 1521.77,166.358 1522.75,165.923 1523.74,165.791 1524.72,166.308 
  1525.71,166.965 1526.69,167.828 1527.68,168.689 1528.66,169.25 1529.65,168.859 1530.63,167.35 1531.62,166.793 1532.6,166.302 1533.58,166.104 1534.57,166.637 
  1535.55,165.456 1536.54,163.586 1537.52,162.311 1538.51,161.717 1539.49,162.016 1540.48,162.515 1541.46,163.32 1542.45,163.233 1543.43,163.393 1544.42,163.151 
  1545.4,163.136 1546.38,163.992 1547.37,165.285 1548.35,166.174 1549.34,166.594 1550.32,166.72 1551.31,167.026 1552.29,166.725 1553.28,166.978 1554.26,167.807 
  1555.25,167.5 1556.23,167.178 1557.21,167.558 1558.2,168.626 1559.18,167.908 1560.17,166.818 1561.15,166.075 1562.14,165.666 1563.12,165.028 1564.11,163.948 
  1565.09,163.598 1566.08,163.003 1567.06,162.973 1568.05,162.869 1569.03,162.372 1570.01,162.717 1571,162.155 1571.98,162.247 1572.97,162.867 1573.95,164.337 
  1574.94,165.78 1575.92,167.758 1576.91,167.613 1577.89,166.445 1578.88,166.216 1579.86,166.526 1580.84,166.864 1581.83,166.973 1582.81,166.96 1583.8,167.397 
  1584.78,167.382 1585.77,167.18 1586.75,166.881 1587.74,166.104 1588.72,166.074 1589.71,166.598 1590.69,166.253 1591.67,164.888 1592.66,164.032 1593.64,163.277 
  1594.63,163.032 1595.61,162.505 1596.6,162.304 1597.58,161.813 1598.57,162.105 1599.55,163.12 1600.54,164.712 1601.52,165.295 1602.51,165.953 1603.49,166.847 
  1604.47,166.96 1605.46,166.674 1606.44,166.627 1607.43,167.03 1608.41,167.284 1609.4,166.344 1610.38,165.821 1611.37,165.907 1612.35,165.219 1613.34,165.152 
  1614.32,165.701 1615.3,166.755 1616.29,167.288 1617.27,167.515 1618.26,166.757 1619.24,165.01 1620.23,164.195 1621.21,164.184 1622.2,163.219 1623.18,163.035 
  1624.17,162.675 1625.15,162.899 1626.14,163.169 1627.12,164.319 1628.1,164.588 1629.09,164.759 1630.07,165.766 1631.06,167.183 1632.04,167.456 1633.03,167.233 
  1634.01,167.117 1635,166.802 1635.98,165.454 1636.97,164.825 1637.95,164.214 1638.93,163.706 1639.92,163.746 1640.9,164.588 1641.89,165.556 1642.87,166.134 
  1643.86,167.415 1644.84,167.638 1645.83,167.556 1646.81,166.697 1647.8,165.905 1648.78,164.765 1649.77,164.597 1650.75,163.618 1651.73,163.414 1652.72,163.974 
  1653.7,164.382 1654.69,163.838 1655.67,164.173 1656.66,165.138 1657.64,166.211 1658.63,167.233 1659.61,167.688 1660.6,167.303 1661.58,166.075 1662.56,164.795 
  1663.55,163.837 1664.53,163.564 1665.52,163.008 1666.5,162.685 1667.49,162.913 1668.47,163.299 1669.46,164.531 1670.44,165.874 1671.43,167.461 1672.41,169.571 
  1673.4,169.27 1674.38,168.577 1675.36,166.936 1676.35,166.172 1677.33,165.382 1678.32,164.804 1679.3,164.457 1680.29,164.148 1681.27,163.914 1682.26,164.577 
  1683.24,164.392 1684.23,164.853 1685.21,165.49 1686.19,166.89 1687.18,167.419 1688.16,166.665 1689.15,164.663 1690.13,163.483 1691.12,162.828 1692.1,161.948 
  1693.09,161.944 1694.07,161.96 1695.06,162.657 1696.04,163.051 1697.03,164.258 1698.01,166.236 1698.99,168.242 1699.98,170.039 1700.96,171.437 1701.95,169.705 
  1702.93,168.585 1703.92,167.256 1704.9,166.186 1705.89,165.456 1706.87,165.466 1707.86,164.456 1708.84,163.421 1709.82,163.023 1710.81,163.472 1711.79,164.644 
  1712.78,165.809 1713.76,167.321 1714.75,166.853 1715.73,164.864 1716.72,163.48 1717.7,162.945 1718.69,162.208 1719.67,161.433 1720.66,161.282 1721.64,161.521 
  1722.62,162.392 1723.61,163.958 1724.59,164.975 1725.58,166.32 1726.56,168.398 1727.55,170.676 1728.53,171.534 1729.52,171.957 1730.5,170.059 1731.49,168.318 
  1732.47,166.506 1733.45,165.628 1734.44,163.847 1735.42,163.034 1736.41,162.799 1737.39,163.289 1738.38,163.827 1739.36,165.14 1740.35,166.309 1741.33,166.73 
  1742.32,165.669 1743.3,164.19 1744.29,163.685 1745.27,162.24 1746.25,161.603 1747.24,161.302 1748.22,161.821 1749.21,161.971 1750.19,162.392 1751.18,163.346 
  1752.16,164.823 1753.15,166.987 1754.13,169.634 1755.12,171.816 1756.1,172.584 1757.08,170.604 1758.07,169.6 1759.05,167.851 1760.04,166.129 1761.02,164.401 
  1762.01,163.585 1762.99,163.453 1763.98,163.642 1764.96,164.162 1765.95,164.402 1766.93,165.241 1767.91,165.8 1768.9,166.275 1769.88,166.019 1770.87,164.733 
  1771.85,163.541 1772.84,162.401 1773.82,161.383 1774.81,161.057 1775.79,160.934 1776.78,161.336 1777.76,162.41 1778.75,164.008 1779.73,165.997 1780.71,168.718 
  1781.7,169.654 1782.68,170.856 1783.67,170.175 1784.65,168.921 1785.64,168.003 1786.62,167.927 1787.61,166.352 1788.59,165.602 1789.58,164.709 1790.56,164.058 
  1791.54,163.73 1792.53,164.316 1793.51,165.53 1794.5,166.114 1795.48,166.642 1796.47,166.879 1797.45,166.786 1798.44,164.088 1799.42,162.36 1800.41,161.623 
  1801.39,160.687 1802.38,160.318 1803.36,160.567 1804.34,161.639 1805.33,163.514 1806.31,165.29 1807.3,166.747 1808.28,167.056 1809.27,168.125 1810.25,169.119 
  1811.24,169.138 1812.22,168.395 1813.21,168.264 1814.19,167.569 1815.17,167.003 1816.16,165.933 1817.14,165.052 1818.13,165.004 1819.11,165.493 1820.1,166.429 
  1821.08,167.086 1822.07,166.698 1823.05,166.464 1824.04,166.557 1825.02,165.2 1826.01,163.178 1826.99,161.255 1827.97,160.316 1828.96,160.256 1829.94,161.023 
  1830.93,161.528 1831.91,162.63 1832.9,163.504 1833.88,164.642 1834.87,165.643 1835.85,167.23 1836.84,167.613 1837.82,168.6 1838.8,168.796 1839.79,168.214 
  1840.77,167.167 1841.76,166.888 1842.74,166.936 1843.73,167.079 1844.71,166.689 1845.7,166.958 1846.68,168.033 1847.67,167.363 1848.65,166.498 1849.64,165.781 
  1850.62,165.42 1851.6,165.089 1852.59,163.804 1853.57,162.419 1854.56,161.595 1855.54,160.718 1856.53,160.75 1857.51,161.354 1858.5,161.998 1859.48,162.798 
  1860.47,164.237 1861.45,164.912 1862.43,165.733 1863.42,166.139 1864.4,166.862 1865.39,168.31 1866.37,168.839 1867.36,167.715 1868.34,166.699 1869.33,166.313 
  1870.31,166.687 1871.3,167.892 1872.28,168.92 1873.27,168.519 1874.25,167.698 1875.23,166.04 1876.22,165.376 1877.2,165.542 1878.19,164.828 1879.17,164.846 
  1880.16,163.751 1881.14,162.427 1882.13,161.729 1883.11,161.85 1884.1,161.852 1885.08,161.882 1886.06,162.529 1887.05,163.946 1888.03,164.058 1889.02,164.509 
  1890,164.883 1890.99,165.712 1891.97,166.828 1892.96,168.091 1893.94,167.667 1894.93,166.855 1895.91,166.777 1896.9,166.528 1897.88,166.841 1898.86,167.361 
  1899.85,168.339 1900.83,168.594 1901.82,167.133 1902.8,166.483 1903.79,166.053 1904.77,164.89 1905.76,164.694 1906.74,164.871 1907.73,164.454 1908.71,163.606 
  1909.69,162.922 1910.68,162.364 1911.66,162.486 1912.65,162.921 1913.63,163.253 1914.62,163.034 1915.6,163.577 1916.59,163.851 1917.57,164.198 1918.56,165.392 
  1919.54,166.58 1920.52,167.503 1921.51,167.109 1922.49,166.259 1923.48,166.31 1924.46,166.251 1925.45,166.757 1926.43,167.34 1927.42,167.73 1928.4,168.091 
  1929.39,167.825 1930.37,166.934 1931.36,165.651 1932.34,164.985 1933.32,165.233 1934.31,166.241 1935.29,165.703 1936.28,164.373 1937.26,163.566 1938.25,162.834 
  1939.23,162.381 1940.22,162.55 1941.2,162.634 1942.19,163.262 1943.17,163.151 1944.15,163.704 1945.14,164.183 1946.12,164.722 1947.11,165.308 1948.09,166.735 
  1949.08,167.103 1950.06,166.213 1951.05,166.27 1952.03,166.614 1953.02,167.761 1954,167.783 1954.99,166.899 1955.97,166.363 1956.95,166.626 1957.94,166.864 
  1958.92,166.508 1959.91,166.644 1960.89,166.821 1961.88,166.525 1962.86,165.569 1963.85,164.22 1964.83,163.146 1965.82,162.951 1966.8,163.205 1967.78,163.05 
  1968.77,163.017 1969.75,162.987 1970.74,162.519 1971.72,162.853 1972.71,163.695 1973.69,164.163 1974.68,165.395 1975.66,166.697 1976.65,167.66 1977.63,167.484 
  1978.62,167.177 1979.6,167.396 1980.58,166.5 1981.57,165.643 1982.55,165.532 1983.54,166.074 1984.52,166.379 1985.51,167.106 1986.49,167.566 1987.48,166.37 
  1988.46,166.056 1989.45,166.655 1990.43,165.995 1991.41,164.64 1992.4,163.959 1993.38,164.201 1994.37,163.783 1995.35,163.485 1996.34,162.37 1997.32,161.954 
  1998.31,162.088 1999.29,163.085 2000.28,164.061 2001.26,165.057 2002.25,166.563 2003.23,167.216 2004.21,167.576 2005.2,167.172 2006.18,166.811 2007.17,166.232 
  2008.15,165.633 2009.14,165.279 2010.12,165.767 2011.11,165.595 2012.09,165.294 2013.08,165.26 2014.06,165.885 2015.04,167.083 2016.03,166.584 2017.01,166.884 
  2018,166.825 2018.98,166.592 2019.97,165.618 2020.95,164.408 2021.94,163.579 2022.92,162.459 2023.91,162.288 2024.89,162.787 2025.88,163.862 2026.86,164.065 
  2027.84,164.282 2028.83,164.728 2029.81,165.564 2030.8,167.082 2031.78,167.647 2032.77,167.34 2033.75,166.602 2034.74,165.658 2035.72,165.17 2036.71,165.233 
  2037.69,164.445 2038.67,163.812 2039.66,163.73 2040.64,164.219 2041.63,164.936 2042.61,166.396 2043.6,168.259 2044.58,168.63 2045.57,168.113 2046.55,167.432 
  2047.54,165.771 2048.52,164.895 2049.51,163.9 2050.49,163.535 2051.47,163.947 2052.46,163.729 2053.44,163.471 2054.43,163.186 2055.41,163.736 2056.4,164.663 
  2057.38,165.83 2058.37,167.199 2059.35,168.194 2060.34,167.334 2061.32,165.996 2062.3,165.274 2063.29,164.475 2064.27,163.272 2065.26,162.655 2066.24,162.889 
  2067.23,163.04 2068.21,163.832 2069.2,164.696 2070.18,166.283 2071.17,168.103 2072.15,170.276 2073.13,169.841 2074.12,167.89 2075.1,166.92 2076.09,166.005 
  2077.07,165.088 2078.06,164.282 2079.04,164.032 2080.03,163.023 2081.01,162.859 2082,163.307 2082.98,163.724 2083.97,164.989 2084.95,166.372 2085.93,167.943 
  2086.92,167.906 2087.9,166.502 2088.89,165.301 2089.87,164.247 2090.86,162.942 2091.84,162.434 2092.83,162.111 2093.81,161.862 2094.8,162.517 2095.78,163.832 
  2096.76,164.837 2097.75,166.376 2098.73,168.094 2099.72,170.572 2100.7,171.438 2101.69,169.756 2102.67,168.22 2103.66,166.187 2104.64,165.13 2105.63,164.235 
  2106.61,163.506 2107.6,163.333 2108.58,163.229 2109.56,163.396 2110.55,163.757 2111.53,164.91 2112.52,166.87 2113.5,168.514 2114.49,167.606 2115.47,165.584 
  2116.46,164.496 2117.44,163.553 2118.43,162.113 2119.41,161.385 2120.39,161.357 2121.38,161.621 2122.36,162.264 2123.35,163.687 2124.33,165.139 2125.32,167.296 
  2126.3,169.306 2127.29,170.682 2128.27,171.314 2129.26,169.933 2130.24,168.068 2131.23,166.657 2132.21,165.781 2133.19,164.757 2134.18,163.369 2135.16,162.612 
  2136.15,162.708 2137.13,163.677 2138.12,165.052 2139.1,166.712 2140.09,167.45 2141.07,167.533 2142.06,167.228 2143.04,165.667 2144.02,163.397 2145.01,161.875 
  2145.99,160.974 2146.98,160.945 2147.96,161.211 2148.95,162.147 2149.93,163.312 2150.92,164.053 2151.9,165.618 2152.89,167.297 2153.87,168.765 2154.86,170.369 
  2155.84,170.436 2156.82,169.236 2157.81,168.719 2158.79,167.319 2159.78,165.192 2160.76,163.97 2161.75,163.313 2162.73,163.425 2163.72,164.081 2164.7,165.448 
  2165.69,166.891 2166.67,167.43 2167.65,166.938 2168.64,167.026 2169.62,166.158 2170.61,163.88 2171.59,162.393 2172.58,161.746 2173.56,161.514 2174.55,161.777 
  2175.53,161.439 2176.52,161.723 2177.5,162.578 2178.49,164.175 2179.47,166.308 2180.45,167.337 2181.44,168.584 2182.42,169.264 2183.41,169.094 2184.39,168.336 
  2185.38,167.59 2186.36,166.784 2187.35,165.44 2188.33,164.764 2189.32,164.975 2190.3,165.922 2191.28,166.723 2192.27,166.732 2193.25,166.626 2194.24,166.406 
  2195.22,165.984 2196.21,166.331 2197.19,165.598 2198.18,164.034 2199.16,162.946 2200.15,161.775 2201.13,160.91 2202.12,160.612 2203.1,161.025 2204.08,161.985 
  2205.07,163.504 2206.05,164.783 2207.04,165.841 2208.02,166.828 2209.01,167.075 2209.99,167.887 2210.98,167.713 2211.96,167.312 2212.95,166.767 2213.93,166.942 
  2214.91,167.705 2215.9,167.717 2216.88,167.048 2217.87,166.729 2218.85,167.147 2219.84,167.029 2220.82,166.164 2221.81,165.799 2222.79,166.352 2223.78,166.614 
  2224.76,165.27 2225.74,163.627 2226.73,161.835 2227.71,160.795 2228.7,160.338 2229.68,160.721 2230.67,161.71 2231.65,162.803 2232.64,163.873 2233.62,163.796 
  2234.61,164.564 2235.59,165.296 2236.58,166.2 2237.56,167.452 2238.54,168.11 2239.53,167.404 2240.51,167.588 2241.5,167.858 2242.48,168.153 2243.47,168.566 
  2244.45,168.177 2245.44,168.308 2246.42,167.595 2247.41,166.594 2248.39,166.532 2249.37,166.484 2250.36,165.841 2251.34,165.468 2252.33,163.961 2253.31,162.175 
  2254.3,161.326 2255.28,161.023 2256.27,161.29 2257.25,161.171 2258.24,161.601 2259.22,162.314 2260.21,162.843 2261.19,164.107 2262.17,164.146 2263.16,164.769 
  2264.14,166.204 2265.13,168.431 2266.11,168.45 2267.1,168.139 2268.08,168.039 2269.07,167.51 2270.05,167.826 2271.04,168.749 2272.02,169.787 2273,169.303 
  2273.99,167.741 2274.97,166.843 2275.96,165.835 2276.94,164.899 2277.93,164.204 2278.91,164.406 2279.9,163.725 2280.88,162.537 2281.87,161.851 2282.85,161.026 
  2283.84,161.152 2284.82,161.434 2285.8,162.345 2286.79,162.567 2287.77,163.063 2288.76,163.454 2289.74,164.541 2290.73,165.599 2291.71,167.387 2292.7,168.717 
  2293.68,168.651 
  "/>
</svg>
